<mxfile host="app.diagrams.net" modified="2024-12-12T12:32:35.954Z" agent="Mozilla/5.0 (Windows NT 10.0; Win64; x64) AppleWebKit/537.36 (KHTML, like Gecko) Chrome/131.0.0.0 Safari/537.36" version="24.4.9" etag="IfeesijulJsDg2XW0L75" type="github">
  <diagram name="Page-1" id="aXwFzRqW_4Ge6XuVaBcN">
    <mxGraphModel>
      <root>
        <mxCell id="0" />
        <mxCell id="1" parent="0" />
      </root>
    </mxGraphModel>
  </diagram>
</mxfile>
